<svg xmlns="http://www.w3.org/2000/svg" viewBox="0 0 500 500"><g id="freepik--background-complete--inject-110"><path d="M319.32,253.3l-123-1.15L159,252l-10.14,0-2.64,0c-.59,0-.9,0-.9.05a5.27,5.27,0,0,0,.9.06l2.64.06,10.13.12,37.29.2,123,.08c48,0,91.51.05,123,.28,15.74.11,28.48.26,37.28.42,4.4.08,7.82.17,10.14.26a17.65,17.65,0,0,1,3.53.26,19.45,19.45,0,0,1-3.53.22c-2.32.07-5.74.12-10.14.16-8.81.07-21.55.09-37.29.05C410.82,254.16,367.34,253.79,319.32,253.3Z" style="fill:#ebebeb"></path><path d="M318.36,263.84,197,244.11l-36.8-5.8-10-1.5-2.61-.37a5.43,5.43,0,0,0-.89-.08,5.22,5.22,0,0,0,.87.19l2.6.46,10,1.66L197,244.5l121.53,18.64C365.92,270.38,408.87,277,439.93,282c15.53,2.48,28.09,4.55,36.76,6,4.33.75,7.7,1.35,10,1.79a18.09,18.09,0,0,1,3.45.8,20.16,20.16,0,0,1-3.53-.31c-2.3-.29-5.69-.75-10-1.38-8.71-1.25-21.3-3.15-36.84-5.58C408.62,278.51,365.72,271.57,318.36,263.84Z" style="fill:#ebebeb"></path><path d="M315.72,274.1,199.08,236l-35.4-11.36-9.65-3-2.52-.76a5.81,5.81,0,0,0-.87-.22,4.61,4.61,0,0,0,.83.33l2.49.85,9.6,3.17L199,236.41l117,37c45.67,14.4,87,27.52,116.88,37.19,14.93,4.83,27,8.8,35.32,11.6,4.16,1.4,7.38,2.51,9.56,3.29a18.12,18.12,0,0,1,3.27,1.32,19.05,19.05,0,0,1-3.43-.84c-2.23-.64-5.5-1.61-9.7-2.9-8.4-2.56-20.52-6.37-35.47-11.14C402.47,302.41,361.23,289,315.72,274.1Z" style="fill:#ebebeb"></path><path d="M311.45,283.82l-109-55.42L169.3,211.77l-9-4.46-2.37-1.13a7,7,0,0,0-.82-.36,4.67,4.67,0,0,0,.77.45l2.32,1.22,9,4.6,33.11,16.65,109.54,54.45c42.77,21.22,81.47,40.5,109.4,54.61,14,7.06,25.24,12.82,33,16.86,3.88,2,6.88,3.61,8.9,4.71a18.06,18.06,0,0,1,3,1.8,20.17,20.17,0,0,1-3.26-1.36c-2.09-1-5.16-2.44-9.1-4.35-7.88-3.82-19.23-9.43-33.23-16.43C392.54,325,354,305.48,311.45,283.82Z" style="fill:#ebebeb"></path><path d="M305.66,292.77l-98.77-71.3-30-21.47-8.21-5.77-2.16-1.48a4.7,4.7,0,0,0-.75-.47,5.29,5.29,0,0,0,.69.56l2.09,1.55c1.88,1.37,4.61,3.36,8.12,5.9l30,21.49c25.48,18,60.61,42.92,99.44,70.42s74,52.37,99.27,70.56c12.66,9.09,22.88,16.49,29.89,21.66,3.51,2.58,6.22,4.61,8,6a18,18,0,0,1,2.7,2.23,19.14,19.14,0,0,1-3-1.84c-1.91-1.27-4.71-3.18-8.29-5.67-7.17-5-17.48-12.24-30.18-21.28C379.12,345.79,344.19,320.62,305.66,292.77Z" style="fill:#ebebeb"></path><path d="M298.51,300.73l-86.16-85.36-26.24-25.75-7.19-6.94L177,180.89a4.61,4.61,0,0,0-.67-.58,6.93,6.93,0,0,0,.59.65l1.82,1.86,7.08,7.05,26.22,25.77,87,84.59c34,33,64.67,62.92,86.77,84.71,11.05,10.89,19.95,19.75,26.06,25.92,3.05,3.08,5.4,5.49,7,7.14a18.86,18.86,0,0,1,2.31,2.62,18.48,18.48,0,0,1-2.67-2.27c-1.69-1.55-4.14-3.86-7.28-6.86-6.29-6-15.31-14.73-26.41-25.58C362.59,364.21,332.12,334.07,298.51,300.73Z" style="fill:#ebebeb"></path><path d="M290.18,307.51l-71.45-97.35-21.81-29.39c-2.58-3.44-4.6-6.11-6-8l-1.59-2a4.84,4.84,0,0,0-.57-.68,6.67,6.67,0,0,0,.48.74l1.5,2.11,5.86,8,21.79,29.41,72.36,96.71C319,344.82,344.59,379,362.93,403.89c9.17,12.43,16.55,22.53,21.59,29.54,2.52,3.51,4.46,6.25,5.75,8.12a17.72,17.72,0,0,1,1.86,2.93,18.2,18.2,0,0,1-2.27-2.64c-1.42-1.79-3.47-4.44-6.1-7.88-5.25-6.87-12.76-16.87-22-29.26C343.32,379.91,318,345.53,290.18,307.51Z" style="fill:#ebebeb"></path><path d="M280.86,313c-21.45-41.79-40.85-79.6-54.91-107-7.09-13.64-12.83-24.68-16.81-32.35l-4.63-8.76-1.24-2.27a6.25,6.25,0,0,0-.45-.75,4.49,4.49,0,0,0,.35.8l1.14,2.31c1.05,2.05,2.56,5,4.5,8.83,4,7.67,9.7,18.72,16.78,32.36L281.5,312.63c21.86,41.56,41.59,79.22,55.71,106.57,7.06,13.67,12.72,24.76,16.57,32.46,1.93,3.84,3.4,6.84,4.38,8.89a17,17,0,0,1,1.36,3.18,18.45,18.45,0,0,1-1.82-3c-1.11-2-2.72-4.91-4.76-8.7-4.07-7.59-9.89-18.61-17-32.25C321.69,392.53,302.25,354.73,280.86,313Z" style="fill:#ebebeb"></path><path d="M270.77,316.9l-36.9-114.08-11.36-34.51c-1.36-4-2.43-7.19-3.16-9.36l-.85-2.43a4.73,4.73,0,0,0-.33-.81,5.68,5.68,0,0,0,.22.85c.18.58.43,1.39.75,2.45l3,9.41c2.69,8.18,6.56,20,11.33,34.52l38,113.74c14.86,44.38,28.25,84.59,37.76,113.76C314,445,317.78,456.84,320.34,465c1.28,4.09,2.25,7.28,2.88,9.45a17.6,17.6,0,0,1,.83,3.34,16.44,16.44,0,0,1-1.32-3.19c-.78-2.12-1.89-5.27-3.29-9.32-2.8-8.12-6.76-19.89-11.58-34.45C298.21,401.74,285.14,361.43,270.77,316.9Z" style="fill:#ebebeb"></path><path d="M260.17,319.25c-7-46.19-13.37-88-18-118.29-2.37-15.11-4.29-27.33-5.63-35.82l-1.6-9.73c-.19-1.09-.34-1.93-.45-2.53a5.63,5.63,0,0,0-.19-.85,5.15,5.15,0,0,0,.08.87c.08.6.2,1.45.35,2.54.33,2.26.82,5.54,1.45,9.75,1.32,8.49,3.24,20.72,5.6,35.83,4.89,30.25,11.63,72,19.09,118.13s14.2,87.85,18.87,118.11c2.34,15.13,4.17,27.38,5.37,35.86.6,4.24,1.05,7.53,1.32,9.77a17,17,0,0,1,.28,3.43A17.22,17.22,0,0,1,286,483c-.43-2.21-1-5.48-1.74-9.7-1.45-8.44-3.46-20.67-5.86-35.79C273.54,407.23,267.15,365.43,260.17,319.25Z" style="fill:#ebebeb"></path><path d="M249.32,320c.43-46.69.82-89,1.11-119.57.06-15.28.12-27.65.15-36.24,0-4.26,0-7.57,0-9.85,0-1.11,0-2,0-2.56a8.56,8.56,0,0,0-.05-.88,4.93,4.93,0,0,0-.06.87c0,.61,0,1.46-.06,2.57,0,2.28-.07,5.59-.12,9.85,0,8.59-.11,21-.18,36.24,0,30.62,0,72.88,0,119.57s0,88.94-.21,119.53c-.1,15.3-.25,27.68-.41,36.24-.08,4.27-.17,7.6-.26,9.85a18.79,18.79,0,0,1-.26,3.43,17,17,0,0,1-.24-3.43c-.06-2.26-.12-5.58-.16-9.86-.09-8.55-.11-20.94-.08-36.23C248.49,408.9,248.85,366.64,249.32,320Z" style="fill:#ebebeb"></path><path d="M238.48,319.05c7.89-46.06,15-87.74,20.22-118,2.51-15.08,4.53-27.29,5.94-35.77.67-4.2,1.19-7.48,1.55-9.74.16-1.09.28-1.93.37-2.53s.1-.87.09-.87a4.21,4.21,0,0,0-.2.85c-.12.6-.27,1.43-.48,2.52l-1.69,9.71c-1.42,8.48-3.46,20.69-6,35.77-4.89,30.26-11.64,72-19.11,118.13S225,407,219.88,437.21c-2.55,15.09-4.67,27.3-6.2,35.73-.76,4.21-1.38,7.48-1.83,9.69A16.75,16.75,0,0,1,211,486a18.67,18.67,0,0,1,.32-3.43c.29-2.23.76-5.53,1.41-9.76,1.28-8.46,3.23-20.7,5.71-35.81C223.44,406.77,230.55,365.08,238.48,319.05Z" style="fill:#ebebeb"></path><path d="M227.92,316.48,267,203.1c4.92-14.51,8.91-26.26,11.67-34.42l3.1-9.38c.34-1.05.59-1.87.78-2.45a6.71,6.71,0,0,0,.23-.84,4.17,4.17,0,0,0-.34.81c-.21.57-.5,1.37-.87,2.42-.76,2.16-1.85,5.3-3.26,9.33L266.62,203c-9.74,29.13-23.17,69.32-38,113.73s-28.26,84.58-38.19,113.61c-5,14.52-9,26.25-11.92,34.34-1.44,4-2.58,7.18-3.38,9.29a17.89,17.89,0,0,1-1.35,3.19,16.33,16.33,0,0,1,.86-3.34c.65-2.17,1.65-5.35,3-9.43,2.64-8.16,6.55-19.95,11.45-34.48C198.84,400.81,212.63,360.72,227.92,316.48Z" style="fill:#ebebeb"></path><path d="M217.92,312.34c22.23-41.39,42.36-78.85,57-106,7.2-13.58,13-24.57,17.09-32.2l4.58-8.79,1.17-2.3a5.27,5.27,0,0,0,.36-.8,4.66,4.66,0,0,0-.46.75l-1.26,2.25c-1.09,2-2.68,5-4.72,8.72l-17.12,32.19-55.95,106.5c-21.81,41.58-41.62,79.21-56.12,106.36-7.25,13.58-13.17,24.54-17.33,32.09-2.07,3.77-3.7,6.69-4.84,8.66a17.94,17.94,0,0,1-1.84,2.94,17,17,0,0,1,1.4-3.17c1-2,2.49-5,4.46-8.85,3.93-7.66,9.7-18.7,16.89-32.3C175.56,391.17,195.66,353.69,217.92,312.34Z" style="fill:#ebebeb"></path><path d="M208.71,306.72l73.29-96,22.07-29.21,5.94-8,1.52-2.09a5.17,5.17,0,0,0,.48-.74,5.89,5.89,0,0,0-.57.68l-1.6,2-6.07,7.9-22.08,29.19-72.4,96.69c-28.23,37.76-53.84,71.91-72.54,96.52-9.34,12.31-17,22.24-22.27,29.06-2.66,3.42-4.74,6-6.17,7.82a18.64,18.64,0,0,1-2.3,2.63,17.09,17.09,0,0,1,1.89-2.92c1.31-1.86,3.27-4.58,5.83-8.06,5.11-7,12.59-17,21.88-29.34C154.19,378.15,180.07,344.18,208.71,306.72Z" style="fill:#ebebeb"></path><path d="M200.51,299.78,288.28,216l26.48-25.52,7.14-7,1.84-1.84a4.54,4.54,0,0,0,.6-.65,4.45,4.45,0,0,0-.68.58l-1.91,1.77-7.25,6.88L288,215.71l-87,84.57c-33.92,33-64.69,62.89-87.1,84.38-11.2,10.75-20.31,19.41-26.65,25.34-3.17,3-5.65,5.26-7.35,6.79A19.43,19.43,0,0,1,77.23,419a18.45,18.45,0,0,1,2.33-2.6c1.59-1.64,4-4,7-7.08,6.17-6.11,15.15-14.88,26.31-25.68C135.23,362.1,166.23,332.46,200.51,299.78Z" style="fill:#ebebeb"></path><path d="M193.52,291.68l100.12-69.51L323.88,201l8.17-5.83,2.11-1.54a6.84,6.84,0,0,0,.7-.55,5.5,5.5,0,0,0-.76.47L331.93,195l-8.27,5.7-30.25,21.18L194,292.25c-38.8,27.5-74,52.35-99.55,70.19-12.78,8.93-23.17,16.1-30.38,21-3.61,2.45-6.42,4.34-8.35,5.59a17.83,17.83,0,0,1-3,1.81,17.8,17.8,0,0,1,2.72-2.21c1.83-1.38,4.56-3.38,8.09-5.93,7.07-5.1,17.35-12.41,30.1-21.39C119.06,343.37,154.43,318.78,193.52,291.68Z" style="fill:#ebebeb"></path><path d="M187.92,282.62,298,229.19l33.28-16.35,9-4.51,2.33-1.2a4.67,4.67,0,0,0,.77-.45,7.29,7.29,0,0,0-.82.35l-2.38,1.11-9.08,4.37-33.29,16.33L188.25,283.25c-42.74,21.27-81.48,40.47-109.61,54.21-14.06,6.87-25.47,12.38-33.39,16.13-4,1.87-7,3.31-9.14,4.25a18.18,18.18,0,0,1-3.27,1.33,19,19,0,0,1,3-1.77c2-1.08,5-2.64,8.95-4.63,7.8-4,19.13-9.62,33.17-16.55C106.06,322.36,145,303.45,187.92,282.62Z" style="fill:#ebebeb"></path><path d="M183.85,272.83,301.2,236.89l35.51-11.06,9.63-3.08,2.49-.83a4.63,4.63,0,0,0,.84-.32,5.81,5.81,0,0,0-.87.22l-2.53.73-9.68,2.93-35.51,11-117,37c-45.66,14.47-87,27.51-117,36.77-15,4.63-27.15,8.33-35.58,10.82-4.21,1.25-7.49,2.19-9.72,2.8a18.85,18.85,0,0,1-3.44.82,17,17,0,0,1,3.29-1.29c2.18-.76,5.41-1.84,9.58-3.2,8.35-2.73,20.46-6.58,35.44-11.28C96.58,299.55,138,286.82,183.85,272.83Z" style="fill:#ebebeb"></path><path d="M181.42,262.52,303.13,245l36.85-5.5,10-1.56,2.6-.44a4.68,4.68,0,0,0,.88-.19,7.51,7.51,0,0,0-.9.08l-2.61.34-10,1.42-36.86,5.46L181.53,263.22C134.1,270.53,91.14,277.08,60,281.64c-15.57,2.28-28.17,4.07-36.9,5.24-4.36.59-7.75,1-10,1.29a18.28,18.28,0,0,1-3.53.27,19.41,19.41,0,0,1,3.45-.76c2.28-.42,5.65-1,10-1.7,8.69-1.41,21.27-3.37,36.82-5.71C90.91,275.57,133.92,269.34,181.42,262.52Z" style="fill:#ebebeb"></path><path d="M180.68,252l123,1,37.29.13,10.13,0,2.64,0a6.3,6.3,0,0,0,.9,0,5.27,5.27,0,0,0-.9-.06l-2.64-.06L341,252.76l-37.29-.15-123,.07c-48,.07-91.51.06-123-.13-15.74-.09-28.48-.22-37.28-.38-4.4-.07-7.82-.16-10.14-.24a18.67,18.67,0,0,1-3.53-.26,19.74,19.74,0,0,1,3.53-.23c2.32-.06,5.74-.12,10.14-.16,8.81-.09,21.55-.13,37.29-.1C89.18,251.23,132.66,251.55,180.68,252Z" style="fill:#ebebeb"></path><path d="M181.62,241.44,303,261l36.81,5.75,10,1.5,2.61.35a5,5,0,0,0,.9.09,6,6,0,0,0-.88-.19l-2.6-.46-10-1.64-36.81-5.79L181.51,242.14C134.06,235,91.1,228.38,60,223.44c-15.53-2.46-28.09-4.52-36.76-6-4.34-.74-7.7-1.34-10-1.78a18,18,0,0,1-3.45-.79,18.92,18.92,0,0,1,3.53.31c2.3.28,5.69.74,10,1.36,8.72,1.24,21.31,3.13,36.85,5.53C91.35,226.88,134.26,233.76,181.62,241.44Z" style="fill:#ebebeb"></path><path d="M184.25,231.18l116.69,37.91,35.42,11.32,9.66,3,2.52.75a5.49,5.49,0,0,0,.87.22,5.57,5.57,0,0,0-.84-.33l-2.49-.84-9.6-3.16-35.41-11.34L184,231.85c-45.7-14.35-87-27.41-116.93-37-14.94-4.81-27-8.76-35.34-11.56-4.16-1.39-7.39-2.5-9.56-3.28a18.66,18.66,0,0,1-3.28-1.31,19,19,0,0,1,3.44.84c2.22.63,5.49,1.6,9.7,2.88,8.4,2.56,20.53,6.35,35.49,11.1C97.47,203,138.72,216.34,184.25,231.18Z" style="fill:#ebebeb"></path><path d="M188.51,221.45l109.1,55.28,33.15,16.6,9,4.45,2.37,1.13a7.86,7.86,0,0,0,.82.35,4.67,4.67,0,0,0-.77-.45l-2.32-1.22-9-4.58-33.14-16.62L188.18,222.08c-42.8-21.17-81.52-40.4-109.47-54.48-14-7-25.26-12.78-33-16.81-3.88-2-6.89-3.6-8.91-4.7a18.06,18.06,0,0,1-3-1.8A20.17,20.17,0,0,1,37,145.65c2.1,1,5.17,2.43,9.11,4.33,7.88,3.81,19.24,9.42,33.25,16.4C107.37,180.34,146,199.85,188.51,221.45Z" style="fill:#ebebeb"></path><path d="M194.29,212.5l98.86,71.17,30.07,21.43,8.22,5.77,2.16,1.47a7.23,7.23,0,0,0,.75.48,4.34,4.34,0,0,0-.69-.56l-2.09-1.56-8.13-5.89-30.05-21.44-99.53-70.3c-38.87-27.41-74-52.29-99.37-70.44C81.82,133.55,71.6,126.16,64.58,121c-3.51-2.58-6.23-4.6-8-6a19.71,19.71,0,0,1-2.7-2.23,18.44,18.44,0,0,1,3,1.83c1.92,1.27,4.71,3.18,8.3,5.66,7.17,5,17.49,12.22,30.2,21.25C120.76,159.56,155.72,184.69,194.29,212.5Z" style="fill:#ebebeb"></path><path d="M201.43,204.53l86.27,85.25L314,315.49l7.2,6.94,1.89,1.79a7.23,7.23,0,0,0,.67.58,4.14,4.14,0,0,0-.59-.66l-1.82-1.85-7.09-7.05L288,289.51,200.91,205c-34-33-64.75-62.83-86.88-84.6-11.06-10.88-20-19.72-26.09-25.88-3.06-3.08-5.41-5.49-7-7.14a18.36,18.36,0,0,1-2.31-2.61,18.52,18.52,0,0,1,2.67,2.26C83,88.6,85.46,90.91,88.6,93.9c6.29,6,15.33,14.72,26.44,25.55C137.26,141.12,167.78,171.23,201.43,204.53Z" style="fill:#ebebeb"></path><path d="M209.75,197.73,281.33,295l21.84,29.37,6,7.95,1.58,2a5.89,5.89,0,0,0,.57.68,4.21,4.21,0,0,0-.48-.74q-.52-.75-1.5-2.1l-5.87-8-21.82-29.38-72.49-96.62c-28.32-37.69-53.91-71.86-72.28-96.71C127.69,89,120.3,78.94,115.25,71.93c-2.53-3.51-4.47-6.24-5.76-8.11a17.47,17.47,0,0,1-1.87-2.93,18.55,18.55,0,0,1,2.28,2.64c1.42,1.78,3.48,4.43,6.1,7.87,5.26,6.86,12.79,16.85,22,29.23C156.52,125.4,181.85,159.75,209.75,197.73Z" style="fill:#ebebeb"></path><path d="M219.07,192.28l55.05,107L291,331.55l4.65,8.76,1.24,2.26a6,6,0,0,0,.45.76,4.71,4.71,0,0,0-.35-.81c-.28-.54-.65-1.31-1.15-2.3l-4.5-8.83-16.83-32.34c-14.35-27.27-34.16-64.88-56.05-106.45s-41.69-79.16-55.84-106.49C155.5,72.44,149.82,61.36,146,53.67c-1.93-3.85-3.41-6.84-4.38-8.89a16.75,16.75,0,0,1-1.37-3.18,19.41,19.41,0,0,1,1.82,3c1.11,2,2.72,4.91,4.77,8.7,4.09,7.58,9.91,18.58,17,32.22C178.13,112.75,197.61,150.53,219.07,192.28Z" style="fill:#ebebeb"></path><path d="M229.15,188.32c14.46,44.53,27.56,84.82,37,114l11.4,34.5c1.37,4,2.44,7.19,3.17,9.36l.86,2.42a5.17,5.17,0,0,0,.33.82,5.06,5.06,0,0,0-.22-.85l-.76-2.46c-.7-2.18-1.72-5.34-3-9.4l-11.38-34.51c-9.76-29.12-23.24-69.3-38.13-113.69S200.1,104,190.55,74.83c-4.78-14.58-8.59-26.39-11.16-34.58-1.29-4.09-2.26-7.27-2.89-9.44a16.18,16.18,0,0,1-.84-3.35,18.1,18.1,0,0,1,1.32,3.2c.78,2.12,1.9,5.26,3.3,9.32,2.81,8.1,6.79,19.87,11.63,34.43C201.59,103.52,214.72,143.81,229.15,188.32Z" style="fill:#ebebeb"></path><path d="M239.74,186c7.08,46.19,13.49,88,18.13,118.28,2.4,15.1,4.34,27.32,5.68,35.81.7,4.2,1.24,7.47,1.62,9.73q.29,1.62.45,2.52a5.61,5.61,0,0,0,.19.86,5.08,5.08,0,0,0-.08-.87c-.08-.61-.2-1.45-.35-2.54L263.92,340c-1.34-8.49-3.27-20.72-5.65-35.82-4.93-30.25-11.73-72-19.24-118.11S224.71,98.22,220,68c-2.36-15.12-4.21-27.37-5.42-35.85-.61-4.24-1.05-7.53-1.33-9.77a17,17,0,0,1-.28-3.43,18.21,18.21,0,0,1,.78,3.35c.43,2.22,1,5.49,1.76,9.71,1.46,8.44,3.48,20.66,5.9,35.78C226.26,98,232.7,139.79,239.74,186Z" style="fill:#ebebeb"></path><path d="M250.59,185.22c-.37,46.7-.71,89-1,119.58,0,15.28-.08,27.65-.11,36.24,0,4.25,0,7.56,0,9.85,0,1.1,0,1.95,0,2.56a8.17,8.17,0,0,0,0,.87,4.79,4.79,0,0,0,.06-.87c0-.61,0-1.46.06-2.56,0-2.29.06-5.6.11-9.85,0-8.59.07-21,.13-36.24,0-30.63-.09-72.88-.15-119.58s-.11-88.93.06-119.53c.08-15.3.21-27.68.36-36.23.08-4.28.16-7.6.25-9.85a16.78,16.78,0,0,1,.26-3.44,19.19,19.19,0,0,1,.24,3.44c.07,2.25.13,5.57.17,9.85.1,8.56.14,20.94.12,36.24C251.3,96.29,251,138.56,250.59,185.22Z" style="fill:#ebebeb"></path><path d="M261.44,186.13c-7.84,46.07-14.93,87.76-20.07,118-2.49,15.09-4.5,27.3-5.9,35.78-.66,4.21-1.17,7.48-1.53,9.74-.16,1.09-.28,1.94-.36,2.54a4.73,4.73,0,0,0-.09.87,6.27,6.27,0,0,0,.2-.85c.11-.6.26-1.44.46-2.53.4-2.25,1-5.51,1.69-9.71,1.4-8.48,3.43-20.69,5.93-35.78,4.85-30.26,11.55-72,19-118.15S274.81,98.15,279.88,68c2.52-15.1,4.63-27.31,6.15-35.74.76-4.21,1.37-7.48,1.82-9.69a17.9,17.9,0,0,1,.81-3.36,17,17,0,0,1-.31,3.44c-.29,2.23-.76,5.52-1.4,9.76-1.27,8.46-3.2,20.7-5.67,35.81C276.36,98.39,269.31,140.09,261.44,186.13Z" style="fill:#ebebeb"></path><path d="M272,188.68c-15.21,44.3-29,84.38-38.94,113.44-4.9,14.51-8.86,26.27-11.62,34.43-1.33,4.05-2.37,7.21-3.09,9.38-.33,1.06-.59,1.87-.77,2.45a6.52,6.52,0,0,0-.23.85,4.17,4.17,0,0,0,.34-.81c.21-.58.49-1.38.87-2.42l3.24-9.34,11.65-34.42c9.7-29.14,23.07-69.35,37.86-113.78s28.15-84.62,38-113.66c4.94-14.53,9-26.26,11.87-34.35,1.43-4.05,2.57-7.18,3.37-9.3A18.48,18.48,0,0,1,325.93,28a16.77,16.77,0,0,1-.85,3.35c-.65,2.16-1.65,5.34-3,9.42-2.63,8.17-6.52,20-11.4,34.5C301,104.32,287.23,144.42,272,188.68Z" style="fill:#ebebeb"></path><path d="M282,192.82c-22.19,41.41-42.26,78.9-56.81,106.06-7.19,13.59-13,24.59-17.06,32.23-2,3.8-3.51,6.75-4.57,8.79-.5,1-.88,1.76-1.16,2.3a5.58,5.58,0,0,0-.36.81,6.08,6.08,0,0,0,.46-.76c.3-.53.71-1.28,1.25-2.25l4.71-8.73,17.08-32.21L281.37,192.5c21.75-41.61,41.5-79.26,56-106.43,7.23-13.59,13.13-24.56,17.28-32.11,2.07-3.78,3.69-6.7,4.83-8.67a17.36,17.36,0,0,1,1.84-2.94,18.9,18.9,0,0,1-1.4,3.17c-1,2-2.49,5-4.45,8.85C351.53,62,345.78,73.08,338.6,86.7,324.26,113.93,304.21,151.43,282,192.82Z" style="fill:#ebebeb"></path><path d="M291.22,198.42l-73.17,96.14c-9.29,12.32-16.8,22.3-22,29.23-2.56,3.46-4.56,6.14-5.93,8l-1.52,2.09a6.14,6.14,0,0,0-.49.74,5.23,5.23,0,0,0,.58-.68l1.6-2c1.4-1.84,3.44-4.49,6-7.9l22.05-29.23L290.64,198c28.18-37.8,53.75-72,72.41-96.62C372.38,89.07,380,79.13,385.28,72.3c2.66-3.41,4.73-6,6.17-7.82a18.29,18.29,0,0,1,2.29-2.63,18.37,18.37,0,0,1-1.88,2.92c-1.31,1.86-3.27,4.58-5.82,8.07-5.11,7-12.57,17-21.84,29.37C345.65,126.93,319.81,160.92,291.22,198.42Z" style="fill:#ebebeb"></path><path d="M299.43,205.36l-87.67,83.9-26.43,25.55-7.14,7-1.83,1.84a5.16,5.16,0,0,0-.6.65,4.84,4.84,0,0,0,.67-.57l1.91-1.77,7.24-6.9c6.28-6.05,15.31-14.76,26.46-25.53l86.88-84.67c33.88-33.08,64.61-63,87-84.5C397.1,109.6,406.19,100.94,412.53,95c3.16-3,5.64-5.26,7.34-6.8a19.09,19.09,0,0,1,2.68-2.25,17,17,0,0,1-2.33,2.6c-1.58,1.64-4,4-7,7.09-6.15,6.12-15.13,14.91-26.27,25.71C364.63,143,333.67,172.64,299.43,205.36Z" style="fill:#ebebeb"></path><path d="M306.43,213.44l-100,69.63-30.21,21.25L168,310.15l-2.1,1.54a5.93,5.93,0,0,0-.7.56,5.5,5.5,0,0,0,.76-.47l2.17-1.46,8.26-5.71,30.22-21.23L306,212.87c38.76-27.55,73.9-52.44,99.45-70.31,12.78-8.94,23.15-16.13,30.36-21,3.6-2.46,6.42-4.35,8.34-5.61a17.83,17.83,0,0,1,3-1.81,18,18,0,0,1-2.71,2.21c-1.84,1.38-4.56,3.39-8.09,5.94-7.06,5.11-17.34,12.44-30.07,21.43C380.82,161.66,345.49,186.3,306.43,213.44Z" style="fill:#ebebeb"></path><path d="M312,222.49,202,276.07l-33.25,16.39-9,4.52-2.33,1.21a4.33,4.33,0,0,0-.77.44,5.78,5.78,0,0,0,.82-.35l2.38-1.11,9.08-4.39,33.26-16.37c28-14,66.74-33.24,109.49-54.55s81.43-40.57,109.54-54.34c14.06-6.88,25.46-12.41,33.37-16.17,3.95-1.88,7-3.31,9.14-4.26a20.17,20.17,0,0,1,3.26-1.34,17.66,17.66,0,0,1-3,1.78c-2,1.08-5.05,2.65-8.95,4.64-7.8,4-19.12,9.65-33.14,16.59C393.85,182.65,355,201.62,312,222.49Z" style="fill:#ebebeb"></path><path d="M316.12,232.29l-117.3,36.08-35.49,11.11-9.63,3.09-2.49.83a4.63,4.63,0,0,0-.84.32,5.49,5.49,0,0,0,.87-.22l2.53-.73,9.67-2.94,35.5-11.08,117-37.13c45.63-14.53,87-27.62,117-36.92,15-4.65,27.15-8.37,35.57-10.87,4.21-1.25,7.49-2.2,9.72-2.81a18.64,18.64,0,0,1,3.44-.82,19.29,19.29,0,0,1-3.29,1.29c-2.18.76-5.41,1.84-9.58,3.21-8.35,2.74-20.45,6.61-35.42,11.32C403.36,205.45,361.91,218.24,316.12,232.29Z" style="fill:#ebebeb"></path><path d="M318.56,242.59,196.88,260.28,160,265.82l-10,1.58-2.6.44a6,6,0,0,0-.88.19,5.44,5.44,0,0,0,.9-.08l2.61-.34,10-1.43,36.85-5.51,121.51-18.78c47.42-7.37,90.37-14,121.5-18.57,15.56-2.3,28.16-4.11,36.88-5.29,4.36-.59,7.75-1,10.05-1.29a19.84,19.84,0,0,1,3.54-.29,18.25,18.25,0,0,1-3.46.77c-2.28.42-5.64,1-10,1.71-8.68,1.43-21.25,3.4-36.81,5.76C409.06,229.43,366.06,235.72,318.56,242.59Z" style="fill:#ebebeb"></path><path d="M110.76,319.15l7.94,3-6.89,2a7.17,7.17,0,0,0-4.87,4.67l-2.49,7.63-3.07-7.65a7.19,7.19,0,0,0-4.22-4.08l-7-2.53,7.55-3.1a7.18,7.18,0,0,0,4-4.07l2.73-7.08,2,6.59A7.21,7.21,0,0,0,110.76,319.15Z" style="fill:#ebebeb"></path><path d="M265.7,386l6.46,2.42L266.55,390a5.86,5.86,0,0,0-4,3.81l-2,6.2-2.5-6.22a5.88,5.88,0,0,0-3.43-3.32L249,388.38l6.14-2.52a5.86,5.86,0,0,0,3.24-3.31l2.22-5.76,1.59,5.36A5.87,5.87,0,0,0,265.7,386Z" style="fill:#ebebeb"></path><path d="M300.17,111l4.62,1.74-4,1.14a4.2,4.2,0,0,0-2.84,2.72l-1.45,4.44-1.79-4.45a4.17,4.17,0,0,0-2.45-2.38l-4.06-1.47,4.4-1.81a4.16,4.16,0,0,0,2.31-2.36l1.59-4.13,1.14,3.84A4.17,4.17,0,0,0,300.17,111Z" style="fill:#ebebeb"></path><path d="M141.07,344.05l4.26,1.6-3.7,1.05a3.85,3.85,0,0,0-2.62,2.52l-1.34,4.09L136,349.2a3.89,3.89,0,0,0-2.27-2.19L130,345.65l4.06-1.67a3.85,3.85,0,0,0,2.14-2.18l1.46-3.81,1.06,3.54A3.87,3.87,0,0,0,141.07,344.05Z" style="fill:#ebebeb"></path><path d="M134.17,265.78l4.26,1.6-3.7,1.05a3.87,3.87,0,0,0-2.62,2.52L130.77,275l-1.65-4.11a3.84,3.84,0,0,0-2.26-2.19l-3.75-1.36,4.06-1.66a3.93,3.93,0,0,0,2.14-2.19l1.46-3.81,1,3.54A3.88,3.88,0,0,0,134.17,265.78Z" style="fill:#ebebeb"></path><path d="M255.87,149.26l4.27,1.6-3.71,1a3.86,3.86,0,0,0-2.61,2.51l-1.34,4.1-1.65-4.11a3.86,3.86,0,0,0-2.27-2.19l-3.74-1.36,4.06-1.67A3.84,3.84,0,0,0,251,147l1.47-3.81,1.05,3.54A3.87,3.87,0,0,0,255.87,149.26Z" style="fill:#ebebeb"></path><path d="M181.37,128.81l7,2.65-6.12,1.74a6.39,6.39,0,0,0-4.33,4.15l-2.21,6.77L173,137.33a6.36,6.36,0,0,0-3.74-3.62l-6.19-2.25,6.7-2.75a6.36,6.36,0,0,0,3.53-3.61l2.43-6.3,1.74,5.86A6.35,6.35,0,0,0,181.37,128.81Z" style="fill:#ebebeb"></path><path d="M214.47,93.23l9.61,3.61-8.34,2.37a8.66,8.66,0,0,0-5.89,5.66l-3,9.22-3.71-9.25A8.69,8.69,0,0,0,198,99.91l-8.43-3.07,9.13-3.75a8.65,8.65,0,0,0,4.81-4.92l3.31-8.58,2.37,8A8.67,8.67,0,0,0,214.47,93.23Z" style="fill:#ebebeb"></path></g><g id="freepik--Floor--inject-110"><path d="M456.46,463.21c0,.15-92.44.26-206.45.26s-206.47-.11-206.47-.26S136,463,250,463,456.46,463.07,456.46,463.21Z" style="fill:#263238"></path></g><g id="freepik--Shaker--inject-110"><path d="M434.07,210.26l-.1-9.11s-12.09-2.48-14.24-10.49,3.22-20.16-12.35-28.45L391,155.86V116.62a10.86,10.86,0,0,0-10.71-11H342.44a10.87,10.87,0,0,0-10.71,11v39.24l-16.38,6.35c-15.58,8.29-10.21,20.44-12.36,28.45s-14.23,10.49-14.23,10.49l-.11,9.11c-17.81,125.88,18.84,253,18.84,253H415.23S451.89,336.14,434.07,210.26Z" style="fill:#1DDDB3"></path><path d="M369.7,155.85s-3.3-35.75-2.33-42.84c.67-4.92,14-5.32,14.74,0s0,42.84,0,42.84Z" style="fill:#fff;opacity:0.30000000000000004"></path><g style="opacity:0.30000000000000004"><path d="M413,197.14c-1.52-2.46-4.93-2.54-7.43-3.91-3.66-2-5.11-6.66-5.33-10.91s.47-8.59-.43-12.75A16.79,16.79,0,0,0,388,157.08H373.46c4.26.93,12.66,7.61,13.14,14.34.32,4.47-.88,8.9-1,13.38s1.08,9.5,4.82,11.8c2.07,1.27,4.57,1.51,6.78,2.5S399.7,205.44,400,210h15.22S414.6,199.8,413,197.14Z" style="fill:#fff"></path></g><path d="M391.09,155.85c0,.14-13.29.26-29.68.26s-29.68-.12-29.68-.26,13.29-.26,29.68-.26S391.09,155.7,391.09,155.85Z" style="fill:#263238"></path><path d="M434.77,201.57c0,.15-32.58.26-72.76.26s-72.77-.11-72.77-.26,32.58-.26,72.77-.26S434.77,201.43,434.77,201.57Z" style="fill:#263238"></path><path d="M434.69,209.86c0,.15-32.86.26-73.38.26s-73.38-.11-73.38-.26,32.85-.26,73.38-.26S434.69,209.72,434.69,209.86Z" style="fill:#263238"></path><path d="M401.63,216.16h13.55s9.65,100-5.48,196.55c-5.12,32.67-11.1,45.91-11.6,38.74s0-80.34,0-101.86S401.63,216.16,401.63,216.16Z" style="fill:#fff;opacity:0.30000000000000004"></path><path d="M299.5,370.09c-.17,0-.59-2.08-1.18-5.92-.31-1.92-.62-4.27-.95-7s-.72-5.86-1.05-9.31c-.73-6.9-1.35-15.14-1.91-24.3s-.87-19.24-1-29.82.07-20.69.4-29.86.88-17.42,1.55-24.33c.28-3.46.63-6.58,1-9.32s.61-5.09.91-7c.59-3.83,1-5.94,1.17-5.92s.12,2.17-.16,6c-.15,1.93-.31,4.29-.47,7s-.41,5.86-.58,9.32c-.43,6.9-.71,15.13-1,24.27s-.3,19.19-.2,29.75.43,20.6.8,29.74.85,17.36,1.35,24.26c.21,3.45.45,6.57.65,9.31s.38,5.1.52,7C299.61,367.92,299.68,370.07,299.5,370.09Z" style="fill:#fff"></path><path d="M331.73,162c.13.35-2.12,1.45-5.75,3a56.35,56.35,0,0,0-6.09,3.08,21.89,21.89,0,0,0-3.17,2.29,13.69,13.69,0,0,0-2.67,3,5.27,5.27,0,0,0-.53.88c-.15.31-.32.59-.46.9-.29.64-.53,1.28-.76,1.92a30.86,30.86,0,0,0-1,3.83,55.83,55.83,0,0,0-1,6.77c-.31,3.9-.26,6.38-.65,6.42s-1-2.39-1.19-6.47a37.38,37.38,0,0,1,.45-7.16,29.28,29.28,0,0,1,1-4.19,22,22,0,0,1,.81-2.16c.15-.37.36-.73.54-1.1a8.7,8.7,0,0,1,.63-1.06,15.33,15.33,0,0,1,3.21-3.56,21.23,21.23,0,0,1,3.62-2.43,38.53,38.53,0,0,1,6.64-2.73C329.18,162.17,331.6,161.7,331.73,162Z" style="fill:#fff"></path><path d="M336.57,118.82c.72,0,1.3,7.18,1.3,16.05s-.58,16-1.3,16-1.3-7.19-1.3-16S335.85,118.82,336.57,118.82Z" style="fill:#fff"></path></g><g id="freepik--Olives--inject-110"><path d="M171,446.59c-.25,9.8-10.19,17.5-22.18,17.18s-21.52-8.5-21.27-18.3,10.19-17.49,22.19-17.18S171.22,436.79,171,446.59Z" style="fill:#455a64"></path><g style="mix-blend-mode:screen;opacity:0.1"><path d="M138.84,447a36,36,0,0,0,24.23-8.2,2,2,0,0,0,.74-.95,1.64,1.64,0,0,0-.67-1.42,21.16,21.16,0,0,0-16.29-5.68c-5,.4-12.37,3-15.41,7.41C127.83,443.36,134.42,446.73,138.84,447Z" style="fill:#fff"></path></g><path d="M138.83,435.12a8,8,0,0,0-5.24,2.91c-.84,1-2.7,3.05-1.69,4.46.77,1.1,3.12-1,3.81-1.53,1.42-1.08,4-2.92,4.53-4.76.21-.77-.28-1.06-1-1.08Z" style="fill:#fff"></path><path d="M145.81,434a1,1,0,0,0-.13-.86,1.79,1.79,0,0,0-.67-.58c-1.26-.66-4.82.19-3.83,2.2C141.83,436.06,145.42,435.17,145.81,434Z" style="fill:#fff"></path><path d="M165.55,442.45h0a14.26,14.26,0,0,0-3.44,11.34.66.66,0,0,0,.27.53c.23.12.51-.08.69-.27C166,451.19,167.75,445.85,165.55,442.45Z" style="fill:#263238"></path><path d="M166.57,441.28c.06.06-.59.68-1.43,1.83a15.9,15.9,0,0,0-2.37,5,15.6,15.6,0,0,0-.45,5.51c.14,1.42.4,2.28.32,2.31a6.56,6.56,0,0,1-.66-2.26,13.91,13.91,0,0,1,2.89-10.76A6.43,6.43,0,0,1,166.57,441.28Z" style="fill:#263238"></path><ellipse cx="204.16" cy="440.3" rx="19.23" ry="23.55" transform="translate(-266.76 322.9) rotate(-51.12)" style="fill:#455a64"></ellipse><g style="mix-blend-mode:screen;opacity:0.1"><path d="M213.72,446.36a38.83,38.83,0,0,0-26.25-8.88,2,2,0,0,0-1.26.33,1.74,1.74,0,0,0-.36,1.66,22.87,22.87,0,0,0,10.29,15.6c4.58,3,12.61,5.56,18.14,3.76C220.84,456.69,217.38,449.45,213.72,446.36Z" style="fill:#fff"></path></g><path d="M206,456.55a8.7,8.7,0,0,0,6.42.94c1.39-.33,4.33-.85,4.4-2.73,0-1.45-3.36-1.19-4.29-1.19-1.94,0-5.4-.13-7,1.12-.69.53-.47,1.1.16,1.6C205.72,456.38,205.83,456.47,206,456.55Z" style="fill:#fff"></path><path d="M199.2,452.92a1.1,1.1,0,0,0-.45.83,1.91,1.91,0,0,0,.19.94c.65,1.39,4.28,3,4.74.62C204,453.76,200.31,452.17,199.2,452.92Z" style="fill:#fff"></path><path d="M187.77,432.66h0a15.5,15.5,0,0,0,10.42-7.5.73.73,0,0,0,.12-.63c-.13-.26-.49-.27-.78-.24C193.16,424.86,188.11,428.28,187.77,432.66Z" style="fill:#263238"></path><path d="M186.11,433c0-.09,1-.19,2.44-.64a16.55,16.55,0,0,0,9.34-7.18c.81-1.31,1.16-2.22,1.25-2.19a7.11,7.11,0,0,1-.93,2.38,15.08,15.08,0,0,1-9.56,7.35A6.68,6.68,0,0,1,186.11,433Z" style="fill:#263238"></path></g><g id="freepik--Glass--inject-110"><path d="M116.55,214.29c1.52,1.67,109.8,119.37,109.8,119.37l10.64.47L341.36,215.49a.83.83,0,0,0-.62-1.38Z" style="fill:#e0e0e0"></path><path d="M205.83,458.66s18.37-5.84,20.51-28.31,0-96.94,0-96.94h6.41V458.66Z" style="fill:#e0e0e0"></path><path d="M257.52,458.66s-18.37-5.84-20.51-28.31,0-96.94,0-96.94H230.6V458.66Z" style="fill:#e0e0e0"></path><path d="M277.94,463.21H184.78v-.68a3.87,3.87,0,0,1,3.87-3.87h85.42a3.87,3.87,0,0,1,3.87,3.87Z" style="fill:#e0e0e0"></path><path d="M277.94,463.21s0-.18,0-.5a4.12,4.12,0,0,0-.23-1.41,3.85,3.85,0,0,0-1.38-1.83,3.7,3.7,0,0,0-1.33-.61,7.06,7.06,0,0,0-1.69-.1l-20.58.08-30.53.06H189.73a6.19,6.19,0,0,0-2.34.23,3.61,3.61,0,0,0-1.77,1.43,3.5,3.5,0,0,0-.51,1.27,6.78,6.78,0,0,0-.07,1.36l-.26-.26,65.89.11,19.92.08,5.43,0h1.42l.5,0-.46,0-1.39,0-5.36,0-19.87.08-66.08.1h-.26v-.26a7.47,7.47,0,0,1,.08-1.46,3.88,3.88,0,0,1,.58-1.45,4.09,4.09,0,0,1,2-1.63,3.8,3.8,0,0,1,1.29-.26c.43,0,.82,0,1.24,0h14.41l18,0,30.53.06,20.58.08a6.54,6.54,0,0,1,1.73.13,3.69,3.69,0,0,1,1.38.66,3.86,3.86,0,0,1,1.57,3.37C278,463.06,277.94,463.21,277.94,463.21Z" style="fill:#263238"></path><path d="M164.49,255.31c0,1.36,56.86,63.67,61.73,64.3s10,.82,13.12-2.26,63.23-69.88,63.23-69.88c-11.9-6.59-60.19,14.78-72.1,15.8C218.88,264.26,164.49,255.31,164.49,255.31Z" style="fill:#1DDDB3"></path><path d="M285.4,242.29a98.54,98.54,0,0,0-29.71,3.3c-8.06,2.17-15.94,5.37-24.28,5.81-7.91.41-15.7-1.71-23.33-3.8s-15.42-4.2-23.33-3.76-16.08,3.88-20.13,10.6v.64c20.73,14,49.33,19.73,73.91,14.57,22.51-4.73,41.06-21,64-22.18C299.59,243.64,292.14,242.57,285.4,242.29Z" style="fill:#1DDDB3"></path><path d="M285.4,242.29c-10-.42-18.48-.09-29.71,3.3-8,2.4-15.94,5.37-24.28,5.81-7.91.41-15.7-1.71-23.33-3.8s-15.42-4.2-23.33-3.76-16.08,3.88-20.13,10.6v.64c20.73,14,49.33,19.73,73.91,14.57,22.51-4.73,41.06-21,64-22.18C299.24,243.64,292.14,242.57,285.4,242.29Z" style="opacity:0.30000000000000004"></path><g style="opacity:0.30000000000000004"><path d="M230.23,280.25a1.88,1.88,0,1,1-1.88-1.88A1.88,1.88,0,0,1,230.23,280.25Z" style="fill:#fff"></path></g><g style="opacity:0.30000000000000004"><path d="M206.83,280.25a1.88,1.88,0,1,1-1.88-1.88A1.88,1.88,0,0,1,206.83,280.25Z" style="fill:#fff"></path></g><g style="opacity:0.30000000000000004"><path d="M244.82,301.71a1.88,1.88,0,1,1-1.88-1.87A1.88,1.88,0,0,1,244.82,301.71Z" style="fill:#fff"></path></g><g style="opacity:0.30000000000000004"><path d="M219.67,294.72a.94.94,0,1,1-.94-.93A.94.94,0,0,1,219.67,294.72Z" style="fill:#fff"></path></g><g style="opacity:0.30000000000000004"><path d="M242.86,293.79a.94.94,0,1,1-.94-.94A.95.95,0,0,1,242.86,293.79Z" style="fill:#fff"></path></g><g style="opacity:0.30000000000000004"><path d="M277.46,263.53a.94.94,0,1,1-.94-.94A.94.94,0,0,1,277.46,263.53Z" style="fill:#fff"></path></g><path d="M237,334.13s0,.8,0,2.34-.09,3.86-.15,6.87c-.1,6.05-.25,15-.45,26.45s-.3,25.56,0,41.89c.07,4.09.19,8.31.41,12.67s.44,8.88,1.83,13.31c.33,1.1.77,2.18,1.16,3.28s1,2.12,1.5,3.2,1.2,2.05,1.9,3a30.45,30.45,0,0,0,2.26,2.83,30.15,30.15,0,0,0,5.51,4.92,28,28,0,0,0,6.66,3.56l1,.37h-1.08l-51.69,0H204.6l1.17-.41a28.81,28.81,0,0,0,6.56-3.5A30.73,30.73,0,0,0,218,449.9a31.9,31.9,0,0,0,7.09-13.66c1.28-5.1,1.38-10.52,1.64-15.94s.29-11,.32-16.54c.13-22.34-.29-45.79-.92-70.09l.06.16L149,250l-32.68-35.52L116,214h.58l151.33-.09,65.32,0h7.59a1,1,0,0,1,.72,1.72l-1.23,1.4-2.45,2.77-9.54,10.84L310.38,251l-53.77,61-14.54,16.46-3.78,4.27c-.85,1-1.3,1.44-1.3,1.44s.42-.5,1.26-1.46l3.73-4.28,14.46-16.51,53.65-61.11q8.55-9.72,17.9-20.37l9.54-10.85c.81-.93,1.63-1.85,2.44-2.79l1.24-1.4a.63.63,0,0,0-.44-1H333.2l-65.32.08-151.33.15.2-.43,32.67,35.52,77.11,83.85.07.07v.09c.63,24.31,1,47.76.89,70.11q-.06,8.39-.33,16.56c-.27,5.42-.36,10.85-1.67,16a32.21,32.21,0,0,1-7.19,13.83,30.81,30.81,0,0,1-5.72,5.12,28.59,28.59,0,0,1-6.68,3.55l-.07-.41,51.69,0-.06.37a32.26,32.26,0,0,1-19.2-21.09c-.28-1.13-.56-2.25-.83-3.36s-.33-2.26-.49-3.38-.19-2.24-.29-3.35-.16-2.2-.2-3.29c-.22-4.37-.33-8.59-.4-12.68-.26-16.34,0-30.41.1-41.9s.4-20.41.55-26.45c.09-3,.16-5.32.2-6.87S237,334.13,237,334.13Z" style="fill:#263238"></path><path d="M157.69,225.49l68.53,94.12a10,10,0,0,0,7.38.38c4-1.38-42.52-91.74-42.52-91.74Z" style="fill:#fff;opacity:0.30000000000000004"></path><path d="M269.6,253.31c3-6.41,2.88-13.49-1-18.8-6.19-8.5-19.64-9.24-30-1.66S224.76,253.45,231,262a15.74,15.74,0,0,0,3.48,3.48,16,16,0,0,0,9.22-1c5-2.05,18-7.48,18.91-7.87S269.6,253.31,269.6,253.31Z" style="fill:#455a64"></path><g style="mix-blend-mode:screen;opacity:0.1"><path d="M241.54,255.81A38.53,38.53,0,0,0,256.77,233a2.14,2.14,0,0,0,0-1.3,1.73,1.73,0,0,0-1.5-.77,22.68,22.68,0,0,0-17.55,5.83c-4,3.62-8.55,10.63-8.25,16.37C229.83,260,237.64,258.51,241.54,255.81Z" style="fill:#fff"></path></g><path d="M233.8,245.77a8.55,8.55,0,0,0-2.55,5.89c-.05,1.42-.31,4.35,1.48,4.9,1.37.42,2-2.9,2.23-3.79.5-1.85,1.52-5.12.74-7-.33-.79-.93-.72-1.57-.26Z" style="fill:#fff"></path><path d="M239,240.25a1.15,1.15,0,0,0-.68-.65,1.8,1.8,0,0,0-.95,0c-1.49.26-4,3.31-1.81,4.37C237,244.61,239.43,241.5,239,240.25Z" style="fill:#fff"></path><path d="M261.3,234.54h0a15.29,15.29,0,0,0,4.49,11.87.68.68,0,0,0,.57.28c.28-.05.38-.4.42-.68C267.36,241.68,265.39,236,261.3,234.54Z" style="fill:#263238"></path><path d="M261.4,232.86c.09,0-.06,1,0,2.5a16.41,16.41,0,0,0,4.46,10.77c1,1.11,1.83,1.67,1.77,1.75a7.21,7.21,0,0,1-2-1.49,14.89,14.89,0,0,1-4.57-11A7.12,7.12,0,0,1,261.4,232.86Z" style="fill:#263238"></path><path d="M100.84,178.74h0a2.22,2.22,0,0,1-2.93-1.07L67.27,111.61a2.19,2.19,0,0,1,1.07-2.93h0a2.19,2.19,0,0,1,2.93,1.07l30.65,66.06A2.21,2.21,0,0,1,100.84,178.74Z" style="fill:#f5f5f5"></path><path d="M100.84,178.74a2.41,2.41,0,0,0,1-1.16,2.19,2.19,0,0,0-.1-1.84l-1.15-2.42-7.28-15.47-10.72-23-6.32-13.57c-1.09-2.36-2.21-4.75-3.34-7.18l-1.7-3.68A2.54,2.54,0,0,0,70.19,109a1.92,1.92,0,0,0-2.8,1.29,2.51,2.51,0,0,0,.41,1.77l1.7,3.68,3.33,7.18,6.28,13.59c4,8.66,7.59,16.46,10.62,23s5.41,11.84,7.11,15.54l1.1,2.44a2.17,2.17,0,0,0,1.34,1.27,2.34,2.34,0,0,0,1.56,0,1.93,1.93,0,0,1-1.59.16,2.26,2.26,0,0,1-1.46-1.3l-1.16-2.43-7.27-15.46-10.73-23-6.31-13.58c-1.1-2.35-2.21-4.75-3.34-7.18-.57-1.22-1.13-2.44-1.71-3.67a8.45,8.45,0,0,1-.41-1,2.48,2.48,0,0,1,0-1.15,2.48,2.48,0,0,1,3.63-1.68,2.44,2.44,0,0,1,.86.77,7.71,7.71,0,0,1,.48.95l1.71,3.68,3.32,7.18c2.18,4.71,4.28,9.26,6.29,13.59l10.61,23,7.11,15.54,1.1,2.45a2.27,2.27,0,0,1,.06,2A1.92,1.92,0,0,1,100.84,178.74Z" style="fill:#263238"></path><path d="M98.31,138a18.1,18.1,0,1,1-25.6.16A18.1,18.1,0,0,1,98.31,138Z" style="fill:#1DDDB3"></path><g style="opacity:0.2"><path d="M70.71,144.12a13.56,13.56,0,0,0-1.06,10.22,14.74,14.74,0,0,0,6.2,8.76c2.19,1.44,5,2.26,7.46,1.44s4.35-3.69,3.42-6.14S82.85,155,81,153.18a7.11,7.11,0,0,1-1.14-8.2c.8-1.45,2.16-2.71,2.25-4.37a3.12,3.12,0,0,0-3-3.41,7,7,0,0,0-5.32,2.37,17.24,17.24,0,0,0-3.06,4.55" style="fill:#fff"></path></g><path d="M94.77,137.32a7.71,7.71,0,0,1,2.39,1.77,14.53,14.53,0,0,1,4.09,13.26,7.38,7.38,0,0,1-1,2.8c-.09,0,.32-1.09.58-2.87a15.56,15.56,0,0,0-4-12.91C95.64,138.05,94.71,137.4,94.77,137.32Z" style="fill:#fff"></path><path d="M177.41,206.29c-.79-1.08-26.46-64-79.67-37.52s-30.41,78.61-30.41,78.61Z" style="fill:#1DDDB3"></path><path d="M73,245.2l97.77-36.5s-28.92-55.38-72.25-32.65S73,245.2,73,245.2Z" style="fill:#fff;opacity:0.7000000000000001"></path><path d="M76.17,234.44c1.84,1.65,4.67,1.28,7.1.77a225.1,225.1,0,0,0,32.88-9.52l-.16-1.35a93.74,93.74,0,0,0-27.64-12.5c-3.11-.84-6.7-1.43-9.33.44-2,1.39-2.86,3.81-3.44,6.14a40.71,40.71,0,0,0-1.24,10.37C74.37,230.83,74.64,233.08,76.17,234.44Z" style="fill:#1DDDB3"></path><path d="M80.71,201.59c.49,2.42,3,3.82,5.23,4.86a225.65,225.65,0,0,0,32.07,12l.67-1.17A93.61,93.61,0,0,0,104,190.74c-2-2.53-4.52-5.15-7.74-5.22-2.4-.06-4.57,1.35-6.43,2.86A40.73,40.73,0,0,0,82.62,196C81.42,197.62,80.3,199.59,80.71,201.59Z" style="fill:#1DDDB3"></path><path d="M109.37,180.14c-1.34,2.08-.54,4.82.33,7.13a225.56,225.56,0,0,0,14.51,31l1.3-.37a93.59,93.59,0,0,0,8.08-29.24c.34-3.21.37-6.85-1.88-9.15-1.68-1.72-4.21-2.23-6.6-2.45a40.55,40.55,0,0,0-10.44.38C112.66,177.8,110.47,178.42,109.37,180.14Z" style="fill:#1DDDB3"></path><path d="M128,220.62a76.28,76.28,0,0,0,25.13-9.18c2.51-1.5,5.22-3.49,6-6.63a11.31,11.31,0,0,0-1-6.79c-1.23-3-3.88-4.83-6.57-6.93-1.45-1.12-3.86-1.42-5.6-1.38-2.1.06-3.77,2.83-5.11,4.84-6.19,9.26-8.68,15.06-13.67,25.2Z" style="fill:#1DDDB3"></path><g style="opacity:0.30000000000000004"><path d="M98,197.69c.11-.13,2.36,1.61,5,3.89,1.75,1.49,3.25,2.84,4,3.62l-.19.26c-.48-.36-.74-.58-.71-.63s.34.08.88.36l-.19.25c-.89-.64-2.46-1.9-4.21-3.4C100,199.77,97.87,197.82,98,197.69Z" style="fill:#fff"></path></g><g style="opacity:0.30000000000000004"><path d="M97.43,201.21c.11-.13,2.26,1.43,4.81,3.5a29.26,29.26,0,0,1,4.42,4c-.11.13-2.26-1.43-4.81-3.5S97.32,201.34,97.43,201.21Z" style="fill:#fff"></path></g><g style="opacity:0.30000000000000004"><path d="M88.14,219.16a10.92,10.92,0,0,1,3.54.58,10.83,10.83,0,0,1,3.38,1.18,10.91,10.91,0,0,1-3.53-.58C89.62,219.85,88.1,219.33,88.14,219.16Z" style="fill:#fff"></path></g><g style="opacity:0.30000000000000004"><path d="M82.5,225.63c0-.17,3-.5,6.64-.73s6.66-.29,6.67-.12-3,.5-6.64.73A38.08,38.08,0,0,1,82.5,225.63Z" style="fill:#fff"></path></g><g style="opacity:0.30000000000000004"><path d="M125.6,192.16a15.87,15.87,0,0,1,.55,3.49c.23,1.91.5,3.47.33,3.51s-.7-1.47-.94-3.44S125.43,192.16,125.6,192.16Z" style="fill:#fff"></path></g><g style="opacity:0.30000000000000004"><path d="M120.58,190.18a41.77,41.77,0,0,1,1.63,6.82c.73,3.8,1.19,6.91,1,6.94a41.77,41.77,0,0,1-1.63-6.82C120.87,193.32,120.41,190.21,120.58,190.18Z" style="fill:#fff"></path></g><g style="opacity:0.30000000000000004"><path d="M139.29,208.15a11.22,11.22,0,0,1,2.56-2.54,11,11,0,0,1,3-2.07c.11.13-1,1.26-2.55,2.54S139.4,208.28,139.29,208.15Z" style="fill:#fff"></path></g><g style="opacity:0.30000000000000004"><path d="M143.35,209.65c-.09-.16,1.54-1.28,3.42-2.82s3.31-2.91,3.44-2.79a11.42,11.42,0,0,1-3.06,3.26A11.26,11.26,0,0,1,143.35,209.65Z" style="fill:#fff"></path></g><g style="opacity:0.30000000000000004"><path d="M146.69,212.6c-.1-.15,1.08-1.09,2.62-2.1s2.87-1.73,3-1.59a9.66,9.66,0,0,1-2.63,2.1A9.43,9.43,0,0,1,146.69,212.6Z" style="fill:#fff"></path></g><g style="opacity:0.30000000000000004"><path d="M141.43,172.57a.44.44,0,0,0,.11-.88.44.44,0,0,0-.11.88Z"></path></g><g style="opacity:0.30000000000000004"><path d="M147.87,173.75a.44.44,0,0,0,.12-.87.44.44,0,0,0-.12.87Z"></path></g><g style="opacity:0.30000000000000004"><path d="M150.56,180.7a.44.44,0,0,0,.12-.87.44.44,0,0,0-.12.87Z"></path></g><g style="opacity:0.30000000000000004"><path d="M156.3,180.49a.44.44,0,0,0,.12-.87.44.44,0,0,0-.12.87Z"></path></g><g style="opacity:0.30000000000000004"><path d="M117.68,166.67a.44.44,0,0,0,.12-.87.44.44,0,0,0-.12.87Z"></path></g><path d="M141.06,240.2l-21.65-23.54a1.15,1.15,0,0,1,1.06-1.92c7.59,2.31,26.23,5.49,35.75,7a1.14,1.14,0,0,1,.59,1.92Z" style="fill:#e0e0e0"></path><path d="M341.09,215.89s-.19.06-.56.14l-1.65.35-6.36,1.31-4.6.94c-1.69.33-3.53.63-5.5,1-3.95.67-8.43,1.55-13.43,2.23L301.16,223c-2.72.42-5.57.7-8.51,1.07s-6,.77-9.14,1l-9.7.9c-13.3,1-27.95,1.75-43.35,1.72s-30.05-.91-43.34-2.08l-9.69-1c-3.15-.29-6.18-.77-9.13-1.12s-5.79-.7-8.5-1.14L152,221.18c-5-.73-9.46-1.66-13.4-2.36-2-.37-3.81-.69-5.49-1l-4.59-1-6.34-1.37-1.65-.37-.56-.15.57.1,1.66.32,6.37,1.27,4.59.94c1.68.34,3.52.64,5.49,1,3.95.68,8.42,1.58,13.41,2.28l7.82,1.19c2.72.43,5.57.72,8.51,1.11s6,.81,9.12,1.09l9.69,1c13.27,1.13,27.91,1.94,43.3,2s30-.66,43.3-1.68l9.7-.87c3.14-.25,6.18-.69,9.13-1s5.79-.63,8.51-1l7.83-1.11c5-.66,9.48-1.52,13.43-2.15,2-.34,3.82-.63,5.5-1l4.61-.88,6.38-1.22,1.66-.3C340.89,215.91,341.09,215.89,341.09,215.89Z" style="fill:#263238"></path><path d="M211.36,230.59c0,.34-4.4.61-11.5.5s-16.9-.66-27.67-1.89-20.44-2.94-27.38-4.45-11.15-2.76-11.08-3.1,4.42.26,11.41,1.29,16.65,2.44,27.35,3.67,20.41,2.06,27.46,2.64S211.36,230.21,211.36,230.59Z" style="fill:#fff"></path><path d="M227.25,230.94c.08.7-2.39,1.56-5.53,1.44s-5.55-1.15-5.42-1.85,2.58-.86,5.51-.76S227.17,230.21,227.25,230.94Z" style="fill:#fff"></path><path d="M244.3,312a5.44,5.44,0,0,1-.75,1.06,28.72,28.72,0,0,1-2.37,2.66,21,21,0,0,1-4.21,3.23,15.55,15.55,0,0,1-2.9,1.25,13,13,0,0,1-3.35.53,11.9,11.9,0,0,1-6.23-1.85,24.62,24.62,0,0,1-4.18-3.26,32.85,32.85,0,0,1-2.44-2.59,6.25,6.25,0,0,1-.8-1,6.27,6.27,0,0,1,1,.89c.58.6,1.43,1.47,2.54,2.46a25.82,25.82,0,0,0,4.17,3.11,11.72,11.72,0,0,0,6,1.75,13,13,0,0,0,3.22-.5,15.8,15.8,0,0,0,2.81-1.18,21.17,21.17,0,0,0,4.18-3.08C243.09,313.4,244.23,311.92,244.3,312Z" style="fill:#263238"></path><path d="M301.67,230.53c-.83.23-53.07,72.92-47.39,70.48s73.26-77.54,73.26-77.54S310.85,228,301.67,230.53Z" style="fill:#fff;opacity:0.30000000000000004"></path><path d="M217.79,318.7a1.63,1.63,0,0,1-.23-.21l-.64-.66-2.44-2.56-8.87-9.48-29.13-31.42-29-31.55-8.73-9.61-2.34-2.64-.6-.7c-.13-.16-.19-.25-.19-.25s.09.07.23.21l.64.67,2.41,2.57,8.85,9.51L176.86,274l29,31.52,8.75,9.59,2.36,2.63.61.69C217.73,318.61,217.8,318.69,217.79,318.7Z" style="fill:#fff"></path><path d="M238.76,322.91c-4.1,1.57-10.21,1.38-14.33-.13a12.61,12.61,0,0,1,4.19,6.82c.7,2.63.81,25.55.92,28.26a9,9,0,0,0,4.31,0c-.19-2.46.11-25.14.82-27.51A20.15,20.15,0,0,1,238.76,322.91Z" style="fill:#fff"></path><path d="M234.48,365.09a2.2,2.2,0,1,1-2.2-2.19A2.2,2.2,0,0,1,234.48,365.09Z" style="fill:#fff"></path><path d="M236.26,334.32c0,.06-.4.42-1.24.78a8.25,8.25,0,0,1-3.46.66,8.41,8.41,0,0,1-3.43-.8c-.82-.4-1.23-.78-1.2-.83a11.23,11.23,0,0,0,9.33.19Z" style="fill:#263238"></path><path d="M228.55,442.64l.78,11.77a1.25,1.25,0,0,1-1.25,1.63,42.77,42.77,0,0,1-13,.5,24,24,0,0,0,10.59-14s1.41-3.9,2.33-3.9C228.42,438.64,228.55,442.64,228.55,442.64Z" style="fill:#fff"></path></g></svg>
